<svg width="26" height="26" viewBox="0 0 26 26" fill="none" xmlns="http://www.w3.org/2000/svg">
<path fill-rule="evenodd" clip-rule="evenodd" d="M24.2913 0H1.42299C0.636162 0 0 0.636162 0 1.42299V24.2913C0 25.0782 0.636162 25.7143 1.42299 25.7143H13.7277V15.7534H10.3795V11.8694H13.7277V9.00671C13.7277 5.69197 15.7701 3.88393 18.7333 3.88393C20.1395 3.88393 21.3616 3.98438 21.7132 4.0346V7.50001L19.6708 7.51675C18.0469 7.51675 17.7456 8.2701 17.7456 9.39175V11.8694H21.5793L21.077 15.7534H17.7456V25.7143H24.2913C25.0782 25.7143 25.7143 25.0782 25.7143 24.2913V1.42299C25.7143 0.636162 25.0782 0 24.2913 0Z" fill="#999999"/>
</svg>
