<svg width="27" height="26" viewBox="0 0 27 26" fill="none" xmlns="http://www.w3.org/2000/svg">
<path fill-rule="evenodd" clip-rule="evenodd" d="M17.8583 12.8582C17.8583 15.2187 15.9331 17.1439 13.5726 17.1439C11.2121 17.1439 9.28684 15.2187 9.28684 12.8582C9.28684 10.4977 11.2121 8.57248 13.5726 8.57248C15.9331 8.57248 17.8583 10.4977 17.8583 12.8582V12.8582ZM20.1686 12.8582C20.1686 9.20865 17.2221 6.26221 13.5726 6.26221C9.923 6.26221 6.97657 9.20865 6.97657 12.8582C6.97657 16.5078 9.923 19.4542 13.5726 19.4542C17.2221 19.4542 20.1686 16.5078 20.1686 12.8582V12.8582ZM21.9766 5.99436C21.9766 5.14056 21.2902 4.45418 20.4364 4.45418C19.5826 4.45418 18.8962 5.14056 18.8962 5.99436C18.8962 6.84815 19.5826 7.53454 20.4364 7.53454C21.2902 7.53454 21.9766 6.84815 21.9766 5.99436V5.99436ZM13.5726 2.31132C15.4476 2.31132 19.4654 2.16065 21.1563 2.83029C21.7422 3.06467 22.1775 3.34926 22.6295 3.80127C23.0815 4.25328 23.3661 4.68855 23.6005 5.27449C24.2701 6.96534 24.1194 10.9832 24.1194 12.8582C24.1194 14.7332 24.2701 18.7511 23.6005 20.4419C23.3661 21.0279 23.0815 21.4631 22.6295 21.9151C22.1775 22.3671 21.7422 22.6517 21.1563 22.8861C19.4654 23.5558 15.4476 23.4051 13.5726 23.4051C11.6976 23.4051 7.6797 23.5558 5.98885 22.8861C5.40291 22.6517 4.96764 22.3671 4.51563 21.9151C4.06362 21.4631 3.77902 21.0279 3.54465 20.4419C2.875 18.7511 3.02567 14.7332 3.02567 12.8582C3.02567 10.9832 2.875 6.96534 3.54465 5.27449C3.77902 4.68855 4.06362 4.25328 4.51563 3.80127C4.96764 3.34926 5.40291 3.06467 5.98885 2.83029C7.6797 2.16065 11.6976 2.31132 13.5726 2.31132V2.31132ZM26.4297 12.8582C26.4297 11.0836 26.4465 9.32583 26.346 7.55128C26.2456 5.49212 25.7768 3.66735 24.2701 2.16065C22.7634 0.653949 20.9386 0.185198 18.8795 0.0847518C17.1049 -0.0156948 15.3471 0.00104632 13.5726 0.00104632C11.798 0.00104632 10.0402 -0.0156948 8.26563 0.0847518C6.20648 0.185198 4.3817 0.653949 2.875 2.16065C1.3683 3.66735 0.899554 5.49212 0.799107 7.55128C0.698661 9.32583 0.715402 11.0836 0.715402 12.8582C0.715402 14.6328 0.698661 16.3906 0.799107 18.1651C0.899554 20.2243 1.3683 22.0491 2.875 23.5558C4.3817 25.0625 6.20648 25.5312 8.26563 25.6317C10.0402 25.7321 11.798 25.7154 13.5726 25.7154C15.3471 25.7154 17.1049 25.7321 18.8795 25.6317C20.9386 25.5312 22.7634 25.0625 24.2701 23.5558C25.7768 22.0491 26.2456 20.2243 26.346 18.1651C26.4465 16.3906 26.4297 14.6328 26.4297 12.8582Z" fill="#999999"/>
</svg>
