<svg width="346" height="96" viewBox="0 0 346 96" fill="none" xmlns="http://www.w3.org/2000/svg">
<path fill-rule="evenodd" clip-rule="evenodd" d="M1 1V92H12.2068L11.1769 39.5398L10.662 31.6769L10.016 23.8159H10.7893L25.7335 92H39V1H27.7932L28.3082 46.8863L28.825 55.3946C29.0815 59.7759 29.5964 64.0301 30.1114 68.2842H29.3399C28.6939 65.319 28.1808 62.7411 27.4075 59.2615L13.8808 1H1" fill="white"/>
<path d="M1 1V92H12.2068L11.1769 39.5398L10.662 31.6769L10.016 23.8159H10.7893L25.7335 92H39V1H27.7932L28.3082 46.8863L28.825 55.3946C29.0815 59.7759 29.5964 64.0301 30.1114 68.2842H29.3399C28.6939 65.319 28.1808 62.7411 27.4075 59.2615L13.8808 1H1" stroke="black"/>
<path fill-rule="evenodd" clip-rule="evenodd" d="M78.9536 2L66 93H77.7755L79.8695 76.2435H93.7372L96.0934 93H108L93.7372 2H78.9536ZM86.8033 19.1438C86.9344 26.6194 87.0656 30.099 87.5881 33.5805L92.1676 65.1592H81.1769L85.1027 33.8368C85.363 32.2916 85.363 31.0026 85.7563 19.1438H86.8033V19.1438Z" fill="white"/>
<path d="M78.9536 2V1.5H78.5198L78.4586 1.92954L78.9536 2ZM66 93L65.505 92.9295L65.4238 93.5H66V93ZM77.7755 93V93.5H78.2169L78.2716 93.062L77.7755 93ZM79.8695 76.2435V75.7435H79.4281L79.3734 76.1815L79.8695 76.2435ZM93.7372 76.2435L94.2323 76.1739L94.1718 75.7435H93.7372V76.2435ZM96.0934 93L95.5983 93.0696L95.6588 93.5H96.0934V93ZM108 93V93.5H108.584L108.494 92.9226L108 93ZM93.7372 2L94.2311 1.92258L94.1649 1.5H93.7372V2ZM87.5881 33.5805L88.0829 33.5088L88.0826 33.5063L87.5881 33.5805ZM92.1676 65.1592V65.6592H92.7453L92.6624 65.0874L92.1676 65.1592ZM81.1769 65.1592L80.6807 65.097L80.6103 65.6592H81.1769V65.1592ZM85.1027 33.8368L84.6096 33.7537L84.6079 33.7642L84.6065 33.7746L85.1027 33.8368ZM85.7563 19.1438V18.6438H85.2726L85.2566 19.1272L85.7563 19.1438ZM78.4586 1.92954L65.505 92.9295L66.495 93.0705L79.4486 2.07046L78.4586 1.92954ZM66 93.5H77.7755V92.5H66V93.5ZM78.2716 93.062L80.3657 76.3055L79.3734 76.1815L77.2794 92.938L78.2716 93.062ZM79.8695 76.7435H93.7372V75.7435H79.8695V76.7435ZM93.242 76.3131L95.5983 93.0696L96.5885 92.9304L94.2323 76.1739L93.242 76.3131ZM96.0934 93.5H108V92.5H96.0934V93.5ZM108.494 92.9226L94.2311 1.92258L93.2432 2.07742L107.506 93.0774L108.494 92.9226ZM93.7372 1.5H78.9536V2.5H93.7372V1.5ZM86.3034 19.1525C86.4344 26.6233 86.5654 30.1355 87.0937 33.6547L88.0826 33.5063C87.5657 30.0625 87.4345 26.6154 87.3033 19.135L86.3034 19.1525ZM87.0933 33.6523L91.6728 65.2309L92.6624 65.0874L88.0829 33.5088L87.0933 33.6523ZM92.1676 64.6592H81.1769V65.6592H92.1676V64.6592ZM81.673 65.2213L85.5988 33.899L84.6065 33.7746L80.6807 65.097L81.673 65.2213ZM85.5957 33.9199C85.8634 32.3309 85.8639 30.9845 86.2561 19.1603L85.2566 19.1272C84.8621 31.0206 84.8626 32.2522 84.6096 33.7537L85.5957 33.9199ZM85.7563 19.6438H86.8033V18.6438H85.7563V19.6438Z" fill="black"/>
<path fill-rule="evenodd" clip-rule="evenodd" d="M129 93H141.02V51.1097C148.129 51.1097 149.551 51.1097 150.973 53.8167C152.395 56.7818 152.523 63.9993 152.523 67.4789V73.9237C152.523 83.2046 153.43 87.7151 154.462 93H167C164.933 87.586 164.674 85.9116 164.674 74.9545V65.0301C164.674 52.9131 163.51 48.0154 154.851 46.9846V46.4683C164.674 46.5974 165.061 40.0253 165.061 24.0414C165.061 5.99597 163.381 2 148.647 2H129V93ZM147.355 12.9571C152.523 12.9571 153.171 13.2134 153.171 23.2688C153.171 38.3491 152.912 41.0561 146.837 41.0561H141.149V12.9571H147.355V12.9571Z" fill="white"/>
<path d="M129 93H128.5V93.5H129V93ZM141.02 93V93.5H141.52V93H141.02ZM141.02 51.1097V50.6097H140.52V51.1097H141.02ZM150.973 53.8167L151.423 53.6003L151.419 53.5922L151.415 53.5843L150.973 53.8167ZM154.462 93L153.972 93.0959L154.05 93.5H154.462V93ZM167 93V93.5H167.726L167.467 92.8217L167 93ZM154.851 46.9846H154.351V47.4286L154.792 47.4811L154.851 46.9846ZM154.851 46.4683L154.857 45.9683L154.351 45.9617V46.4683H154.851ZM129 2V1.5H128.5V2H129ZM141.149 41.0561H140.649V41.5561H141.149V41.0561ZM141.149 12.9571V12.4571H140.649V12.9571H141.149ZM129 93.5H141.02V92.5H129V93.5ZM141.52 93V51.1097H140.52V93H141.52ZM141.02 51.6097C144.607 51.6097 146.664 51.6133 148.013 51.9345C148.666 52.0897 149.122 52.3137 149.492 52.6314C149.869 52.9539 150.189 53.3996 150.53 54.0491L151.415 53.5843C151.046 52.8803 150.655 52.3108 150.143 51.872C149.625 51.4283 149.014 51.1447 148.245 50.9616C146.75 50.606 144.541 50.6097 141.02 50.6097V51.6097ZM150.522 54.033C151.188 55.4215 151.573 57.8794 151.783 60.4949C151.991 63.0848 152.023 65.7434 152.023 67.4789H153.023C153.023 65.7348 152.991 63.0448 152.78 60.4148C152.57 57.8104 152.18 55.177 151.423 53.6003L150.522 54.033ZM152.023 67.4789V73.9237H153.023V67.4789H152.023ZM152.023 73.9237C152.023 83.2507 152.936 87.7968 153.972 93.0959L154.953 92.9041C153.923 87.6334 153.023 83.1586 153.023 73.9237H152.023ZM154.462 93.5H167V92.5H154.462V93.5ZM167.467 92.8217C166.438 90.1269 165.873 88.3978 165.558 85.9909C165.24 83.564 165.174 80.4394 165.174 74.9545H164.174C164.174 80.4268 164.238 83.6179 164.566 86.1209C164.897 88.644 165.495 90.4591 166.533 93.1783L167.467 92.8217ZM165.174 74.9545V65.0301H164.174V74.9545H165.174ZM165.174 65.0301C165.174 58.9917 164.891 54.6211 163.461 51.6341C162.735 50.1183 161.713 48.9536 160.296 48.106C158.887 47.264 157.116 46.7507 154.91 46.4881L154.792 47.4811C156.916 47.7339 158.537 48.2194 159.782 48.9643C161.019 49.7035 161.911 50.7138 162.559 52.066C163.875 54.8147 164.174 58.9514 164.174 65.0301H165.174ZM155.351 46.9846V46.4683H154.351V46.9846H155.351ZM154.844 46.9682C157.349 47.0011 159.319 46.6089 160.847 45.6954C162.386 44.775 163.418 43.3607 164.109 41.4688C164.796 39.5892 165.155 37.217 165.346 34.3401C165.537 31.4592 165.561 28.0355 165.561 24.0414H164.561C164.561 28.0393 164.537 31.431 164.348 34.2739C164.159 37.1207 163.808 39.3804 163.17 41.1256C162.537 42.8586 161.63 44.0621 160.334 44.8371C159.026 45.6191 157.264 45.9999 154.857 45.9683L154.844 46.9682ZM165.561 24.0414C165.561 19.5283 165.456 15.8663 165.064 12.9185C164.672 9.973 163.986 7.69044 162.79 5.96834C160.367 2.48175 156.004 1.5 148.647 1.5V2.5C156.023 2.5 159.868 3.51624 161.968 6.539C163.034 8.07158 163.689 10.1715 164.073 13.0505C164.456 15.9273 164.561 19.5318 164.561 24.0414H165.561ZM148.647 1.5H129V2.5H148.647V1.5ZM128.5 2V93H129.5V2H128.5ZM147.355 13.4571C148.661 13.4571 149.61 13.4756 150.332 13.6416C151.018 13.7994 151.455 14.0808 151.774 14.6031C152.117 15.1629 152.351 16.0428 152.491 17.4644C152.63 18.8755 152.671 20.7549 152.671 23.2688H153.671C153.671 20.755 153.63 18.8316 153.486 17.3665C153.343 15.912 153.093 14.8425 152.627 14.0813C152.139 13.2825 151.445 12.8715 150.556 12.667C149.703 12.4707 148.633 12.4571 147.355 12.4571V13.4571ZM152.671 23.2688C152.671 27.041 152.654 30.0252 152.536 32.385C152.417 34.7516 152.197 36.449 151.806 37.6645C151.42 38.8629 150.883 39.5501 150.146 39.9607C149.383 40.386 148.334 40.5561 146.837 40.5561V41.5561C148.377 41.5561 149.639 41.3879 150.633 40.8343C151.653 40.2662 152.319 39.334 152.758 37.9707C153.191 36.6244 153.415 34.8175 153.535 32.4352C153.655 30.0461 153.671 27.0367 153.671 23.2688H152.671ZM146.837 40.5561H141.149V41.5561H146.837V40.5561ZM141.649 41.0561V12.9571H140.649V41.0561H141.649ZM141.149 13.4571H147.355V12.4571H141.149V13.4571Z" fill="black"/>
<path fill-rule="evenodd" clip-rule="evenodd" d="M187 71.943C187 76.7085 187 82.2479 189.895 86.8862C193.316 92.4238 199.763 95 206.606 95C224.237 95 227 81.8628 227 71.556V56.2277H214.632V73.1021C214.632 78.6416 214.632 84.5661 206.868 84.5661C199.37 84.5661 199.37 79.1576 199.37 74.0051V23.7689C199.37 19.1305 199.37 12.4339 207.132 12.4339C214.764 12.4339 214.764 18.8744 214.764 21.8358V35.8778H227V24.2849C227 17.8443 227 2 207.791 2C187 2 187 20.0335 187 28.0202V71.943" fill="white"/>
<path d="M187 71.943C187 76.7085 187 82.2479 189.895 86.8862C193.316 92.4238 199.763 95 206.606 95C224.237 95 227 81.8628 227 71.556V56.2277H214.632V73.1021C214.632 78.6416 214.632 84.5661 206.868 84.5661C199.37 84.5661 199.37 79.1576 199.37 74.0051V23.7689C199.37 19.1305 199.37 12.4339 207.132 12.4339C214.764 12.4339 214.764 18.8744 214.764 21.8358V35.8778H227V24.2849C227 17.8443 227 2 207.791 2C187 2 187 20.0335 187 28.0202V71.943" stroke="black"/>
<path fill-rule="evenodd" clip-rule="evenodd" d="M248 72.3436C248 76.701 248 81.0583 250.183 85.1571C254.548 94 263.791 94 266.23 94C285.745 94 286 79.392 286 72.7286V29.8046C286 18.6574 286 12.3772 280.995 7.12537C277.271 3.15302 272.392 2 267.385 2C261.737 2 256.217 4.0494 252.495 8.27839C248.386 13.0188 248 18.9141 248 27.1136V72.3436ZM274.19 71.8322C274.19 78.2389 273.933 84.1324 266.873 84.1324C260.325 84.1324 259.941 79.1353 259.941 74.6515V26.0889C259.941 20.4502 259.941 18.5291 260.582 16.7345C262.122 12.3772 266.36 12.3772 267.258 12.3772C274.19 12.3772 274.19 18.4008 274.19 26.2172V71.8322V71.8322Z" fill="white"/>
<path d="M250.183 85.1571L250.631 84.9357L250.628 84.9288L250.624 84.9221L250.183 85.1571ZM280.995 7.12537L280.63 7.46735L280.633 7.47031L280.995 7.12537ZM252.495 8.27839L252.119 7.94803L252.117 7.95092L252.495 8.27839ZM260.582 16.7345L261.053 16.9028L261.054 16.9011L260.582 16.7345ZM247.5 72.3436C247.5 76.6827 247.491 81.1663 249.741 85.3921L250.624 84.9221C248.509 80.9502 248.5 76.7192 248.5 72.3436H247.5ZM249.734 85.3784C254.246 94.5182 263.802 94.5 266.23 94.5V93.5C263.779 93.5 254.85 93.4818 250.631 84.9357L249.734 85.3784ZM266.23 94.5C271.171 94.5 274.93 93.5754 277.787 92.0547C280.648 90.5319 282.576 88.4253 283.87 86.1067C286.444 81.4943 286.5 76.0511 286.5 72.7286H285.5C285.5 76.0695 285.428 81.262 282.997 85.6194C281.787 87.7858 279.993 89.7476 277.317 91.172C274.637 92.5986 271.047 93.5 266.23 93.5V94.5ZM286.5 72.7286V29.8046H285.5V72.7286H286.5ZM286.5 29.8046C286.5 18.7176 286.527 12.205 281.357 6.78043L280.633 7.47031C285.473 12.5494 285.5 18.5973 285.5 29.8046H286.5ZM281.36 6.7834C277.505 2.67115 272.466 1.5 267.385 1.5V2.5C272.318 2.5 277.038 3.63489 280.63 7.46734L281.36 6.7834ZM267.385 1.5C261.622 1.5 255.954 3.59165 252.119 7.94804L252.87 8.60874C256.48 4.50715 261.853 2.5 267.385 2.5V1.5ZM252.117 7.95092C247.871 12.8501 247.5 18.9337 247.5 27.1136H248.5C248.5 18.8945 248.902 13.1875 252.873 8.60586L252.117 7.95092ZM247.5 27.1136V72.3436H248.5V27.1136H247.5ZM273.69 71.8322C273.69 75.0596 273.619 78.0278 272.718 80.1927C272.275 81.2571 271.639 82.1042 270.725 82.6906C269.809 83.2788 268.569 83.6324 266.873 83.6324V84.6324C268.707 84.6324 270.148 84.2493 271.265 83.5322C272.385 82.8134 273.137 81.7867 273.641 80.577C274.633 78.1934 274.69 75.0115 274.69 71.8322H273.69ZM266.873 83.6324C265.299 83.6324 264.137 83.332 263.273 82.8458C262.414 82.3621 261.817 81.6763 261.398 80.8478C260.545 79.1593 260.441 76.9064 260.441 74.6515H259.441C259.441 76.8804 259.53 79.368 260.505 81.2989C261.001 82.2802 261.728 83.1239 262.783 83.7172C263.832 84.3081 265.174 84.6324 266.873 84.6324V83.6324ZM260.441 74.6515V26.0889H259.441V74.6515H260.441ZM260.441 26.0889C260.441 20.4044 260.449 18.5946 261.053 16.9028L260.111 16.5663C259.433 18.4637 259.441 20.4961 259.441 26.0889H260.441ZM261.054 16.9011C262.47 12.8933 266.349 12.8772 267.258 12.8772V11.8772C266.37 11.8772 261.774 11.8611 260.111 16.5679L261.054 16.9011ZM267.258 12.8772C268.919 12.8772 270.109 13.2376 270.978 13.8493C271.845 14.4601 272.442 15.3582 272.852 16.5308C273.684 18.9151 273.69 22.2746 273.69 26.2172H274.69C274.69 22.3434 274.697 18.7829 273.796 16.2013C273.338 14.891 272.636 13.7946 271.554 13.0318C270.472 12.2698 269.063 11.8772 267.258 11.8772V12.8772ZM273.69 26.2172V71.8322H274.69V26.2172H273.69Z" fill="black"/>
<path fill-rule="evenodd" clip-rule="evenodd" d="M320.3 60.2463H309V75.3784C309 79.9963 309 95 326.737 95C330.154 95 336.329 94.6147 340.665 88.9732C343.422 85.2525 345 79.4825 345 73.4557C345 61.7855 339.876 54.4744 333.963 45.8847C324.897 33.0605 322.008 28.8279 322.008 19.5941C322.008 15.1066 322.533 10.4888 328.183 10.4888C332.65 10.4888 333.043 13.8242 333.043 16.6459V32.6752H344.212V16.5156C344.212 7.15524 340.138 1 328.576 1C322.27 1 316.619 2.6677 312.942 8.43766C310.839 11.8996 309.788 16.0037 309.788 20.8766C309.788 32.5468 315.175 40.2413 322.533 50.6291C330.942 62.6827 332.518 66.5299 332.518 74.9931C332.518 79.7394 332.387 85.5094 326.605 85.5094C320.3 85.5094 320.3 79.8678 320.3 76.7893V60.2463" fill="white"/>
<path d="M320.3 60.2463H309V75.3784C309 79.9963 309 95 326.737 95C330.154 95 336.329 94.6147 340.665 88.9732C343.422 85.2525 345 79.4825 345 73.4557C345 61.7855 339.876 54.4744 333.963 45.8847C324.897 33.0605 322.008 28.8279 322.008 19.5941C322.008 15.1066 322.533 10.4888 328.183 10.4888C332.65 10.4888 333.043 13.8242 333.043 16.6459V32.6752H344.212V16.5156C344.212 7.15524 340.138 1 328.576 1C322.27 1 316.619 2.6677 312.942 8.43766C310.839 11.8996 309.788 16.0037 309.788 20.8766C309.788 32.5468 315.175 40.2413 322.533 50.6291C330.942 62.6827 332.518 66.5299 332.518 74.9931C332.518 79.7394 332.387 85.5094 326.605 85.5094C320.3 85.5094 320.3 79.8678 320.3 76.7893V60.2463" stroke="black"/>
</svg>
