<svg width="464" height="61" viewBox="0 0 464 61" fill="none" xmlns="http://www.w3.org/2000/svg">
<path fill-rule="evenodd" clip-rule="evenodd" d="M49.9472 23.9962C49.9472 12.6369 42.7188 1.44965 27.7456 1.44965H0.725098V59.9674H14.9238V46.7148H27.6596C42.6327 46.7148 49.9472 35.5276 49.9472 23.9962ZM14.9238 14.5301H26.1106C31.7901 14.6161 35.6625 17.7141 35.6625 23.9962C35.6625 30.3643 31.7901 33.7204 26.1106 33.7204H14.9238V14.5301Z" fill="#E50914"/>
<path fill-rule="evenodd" clip-rule="evenodd" d="M117.412 30.7085C117.412 14.0998 103.816 0.416992 87.2079 0.416992C70.4276 0.416992 57.0034 14.0998 57.0034 30.7085C57.0034 47.4033 70.4276 61 87.2079 61C103.816 61 117.412 47.4033 117.412 30.7085ZM69.9113 30.7085C69.9113 21.2424 77.6561 13.5835 87.2079 13.5835C96.5876 13.5835 104.332 21.2424 104.332 30.7085C104.332 40.2607 96.5876 47.9196 87.2079 47.9196C77.6561 47.9196 69.9113 40.2607 69.9113 30.7085Z" fill="#E50914"/>
<path fill-rule="evenodd" clip-rule="evenodd" d="M140.819 1.44965V46.8869H171.539V59.9674H126.706V1.44965H140.819Z" fill="#E50914"/>
<path fill-rule="evenodd" clip-rule="evenodd" d="M238.23 30.7085C238.23 14.0998 224.634 0.416992 208.026 0.416992C191.246 0.416992 177.821 14.0998 177.821 30.7085C177.821 47.4033 191.246 61 208.026 61C224.634 61 238.23 47.4033 238.23 30.7085ZM190.729 30.7085C190.729 21.2424 198.474 13.5835 208.026 13.5835C217.406 13.5835 225.15 21.2424 225.15 30.7085C225.15 40.2607 217.406 47.9196 208.026 47.9196C198.474 47.9196 190.729 40.2607 190.729 30.7085Z" fill="#E50914"/>
<path fill-rule="evenodd" clip-rule="evenodd" d="M304.663 1.44965V59.9674H290.464L260.862 24.1683V59.9674H246.664V1.44965H260.862L290.464 37.1627V1.44965H304.663Z" fill="#E50914"/>
<path fill-rule="evenodd" clip-rule="evenodd" d="M360.597 50.8455L364.383 59.9674H379.443L354.315 1.44965H338.568L313.526 59.9674H328.5L332.372 50.8455H360.597ZM355.692 39.314H337.277L346.571 17.456L355.692 39.314Z" fill="#E50914"/>
<path fill-rule="evenodd" clip-rule="evenodd" d="M403.107 1.44965V59.9674H388.995V1.44965H403.107Z" fill="#E50914"/>
<path fill-rule="evenodd" clip-rule="evenodd" d="M438.217 0.416992C453.448 0.416992 461.537 10.8297 461.537 19.9516H447.51C447.51 17.0257 444.068 13.0671 438.045 13.0671C433.828 13.0671 428.665 14.9604 428.665 18.3165C428.665 21.1564 432.537 22.2751 440.798 24.4265C450.006 26.836 463 29.934 463 42.8423C463 54.0295 453.19 61 439.507 61C421.178 61 413.52 48.608 413.52 39.4862H427.546C427.546 39.4862 428.665 48.7802 440.282 48.7802C446.564 48.7802 448.887 46.1124 448.887 43.6168C448.887 39.9164 443.982 38.6256 438.561 37.3348C429.783 35.2694 414.38 31.9993 414.38 19.005C414.38 8.33409 424.878 0.416992 438.217 0.416992Z" fill="#E50914"/>
</svg>
