<svg width="261" height="16" viewBox="0 0 261 16" fill="none" xmlns="http://www.w3.org/2000/svg">
<path d="M8.48242 6.18164C8.48242 6.6569 8.39128 7.10286 8.20898 7.51953C8.0332 7.9362 7.78906 8.30078 7.47656 8.61328C7.16406 8.92578 6.79622 9.17318 6.37305 9.35547C5.95638 9.53125 5.51042 9.61914 5.03516 9.61914H1.86133V15H0.601562V0.996094H5.03516C5.51042 0.996094 5.95638 1.08724 6.37305 1.26953C6.79622 1.44531 7.16406 1.68945 7.47656 2.00195C7.78906 2.31445 8.0332 2.68229 8.20898 3.10547C8.39128 3.52214 8.48242 3.9681 8.48242 4.44336V6.18164ZM7.22266 4.44336C7.22266 4.13086 7.16406 3.84115 7.04688 3.57422C6.92969 3.30078 6.76693 3.06315 6.55859 2.86133C6.35677 2.65299 6.11914 2.49023 5.8457 2.37305C5.57878 2.25586 5.28906 2.19727 4.97656 2.19727H1.86133V8.41797H4.97656C5.28906 8.41797 5.57878 8.35938 5.8457 8.24219C6.11914 8.125 6.35677 7.96549 6.55859 7.76367C6.76693 7.56185 6.92969 7.32747 7.04688 7.06055C7.16406 6.78711 7.22266 6.49414 7.22266 6.18164V4.44336ZM17.4766 15L13.6777 9.02344H11.9492V15H10.6895V0.996094H15.1328C15.6081 0.996094 16.054 1.08724 16.4707 1.26953C16.8874 1.44531 17.252 1.68945 17.5645 2.00195C17.877 2.31445 18.1211 2.68229 18.2969 3.10547C18.4792 3.52214 18.5703 3.9681 18.5703 4.44336V5.57617C18.5703 6.05143 18.4792 6.50065 18.2969 6.92383C18.1211 7.34049 17.877 7.70508 17.5645 8.01758C17.252 8.33008 16.8874 8.57747 16.4707 8.75977C16.054 8.93555 15.6081 9.02344 15.1328 9.02344L18.9316 15H17.4766ZM17.3105 4.44336C17.3105 4.13086 17.252 3.84115 17.1348 3.57422C17.0176 3.30078 16.8581 3.06315 16.6562 2.86133C16.4544 2.65299 16.2168 2.49023 15.9434 2.37305C15.6764 2.25586 15.3867 2.19727 15.0742 2.19727H11.9492V7.82227H15.0742C15.3867 7.82227 15.6764 7.76367 15.9434 7.64648C16.2168 7.5293 16.4544 7.36979 16.6562 7.16797C16.8581 6.95964 17.0176 6.72201 17.1348 6.45508C17.252 6.18164 17.3105 5.88867 17.3105 5.57617V4.44336ZM29.0195 11.7578C29.0195 12.2331 28.9284 12.679 28.7461 13.0957C28.5703 13.5124 28.3262 13.877 28.0137 14.1895C27.7012 14.502 27.3366 14.7493 26.9199 14.9316C26.5033 15.1074 26.0573 15.1953 25.582 15.1953H24.5859C24.1107 15.1953 23.6615 15.1074 23.2383 14.9316C22.8216 14.7493 22.457 14.502 22.1445 14.1895C21.832 13.877 21.5846 13.5124 21.4023 13.0957C21.2266 12.679 21.1387 12.2331 21.1387 11.7578V4.23828C21.1387 3.76302 21.2266 3.31706 21.4023 2.90039C21.5846 2.48372 21.832 2.11914 22.1445 1.80664C22.457 1.49414 22.8216 1.25 23.2383 1.07422C23.6615 0.891927 24.1107 0.800781 24.5859 0.800781H25.582C26.0573 0.800781 26.5033 0.891927 26.9199 1.07422C27.3366 1.25 27.7012 1.49414 28.0137 1.80664C28.3262 2.11914 28.5703 2.48372 28.7461 2.90039C28.9284 3.31706 29.0195 3.76302 29.0195 4.23828V11.7578ZM27.7598 4.23828C27.7598 3.92578 27.7012 3.63607 27.584 3.36914C27.4668 3.0957 27.3073 2.85807 27.1055 2.65625C26.9036 2.45443 26.666 2.29492 26.3926 2.17773C26.1257 2.06055 25.8359 2.00195 25.5234 2.00195H24.6445C24.332 2.00195 24.0391 2.06055 23.7656 2.17773C23.4987 2.29492 23.2611 2.45443 23.0527 2.65625C22.8509 2.85807 22.6914 3.0957 22.5742 3.36914C22.457 3.63607 22.3984 3.92578 22.3984 4.23828V11.7578C22.3984 12.0703 22.457 12.3633 22.5742 12.6367C22.6914 12.9036 22.8509 13.1413 23.0527 13.3496C23.2611 13.5514 23.4987 13.7109 23.7656 13.8281C24.0391 13.9453 24.332 14.0039 24.6445 14.0039H25.5234C25.8359 14.0039 26.1257 13.9453 26.3926 13.8281C26.666 13.7109 26.9036 13.5514 27.1055 13.3496C27.3073 13.1413 27.4668 12.9036 27.584 12.6367C27.7012 12.3633 27.7598 12.0703 27.7598 11.7578V4.23828ZM39.7031 15H39.3027L38.5703 13.877C38.2643 14.2806 37.8932 14.6029 37.457 14.8438C37.0208 15.0781 36.5358 15.1953 36.002 15.1953H35.2695C34.7943 15.1953 34.3451 15.1074 33.9219 14.9316C33.5052 14.7493 33.1406 14.502 32.8281 14.1895C32.5156 13.877 32.2682 13.5124 32.0859 13.0957C31.9102 12.679 31.8223 12.2331 31.8223 11.7578V4.23828C31.8223 3.76302 31.9102 3.31706 32.0859 2.90039C32.2682 2.48372 32.5156 2.11914 32.8281 1.80664C33.1406 1.49414 33.5052 1.25 33.9219 1.07422C34.3451 0.891927 34.7943 0.800781 35.2695 0.800781H36.2656C36.7409 0.800781 37.1868 0.891927 37.6035 1.07422C38.0202 1.25 38.3848 1.49414 38.6973 1.80664C39.0098 2.11914 39.2539 2.48372 39.4297 2.90039C39.612 3.31706 39.7031 3.76302 39.7031 4.23828V4.80469L38.4434 5V4.23828C38.4434 3.92578 38.3848 3.63607 38.2676 3.36914C38.1504 3.0957 37.9909 2.85807 37.7891 2.65625C37.5872 2.45443 37.3496 2.29492 37.0762 2.17773C36.8092 2.06055 36.5195 2.00195 36.207 2.00195H35.3281C35.0156 2.00195 34.7227 2.06055 34.4492 2.17773C34.1823 2.29492 33.9447 2.45443 33.7363 2.65625C33.5345 2.85807 33.375 3.0957 33.2578 3.36914C33.1406 3.63607 33.082 3.92578 33.082 4.23828V11.7578C33.082 12.0703 33.1406 12.3633 33.2578 12.6367C33.375 12.9036 33.5345 13.1413 33.7363 13.3496C33.9447 13.5514 34.1823 13.7109 34.4492 13.8281C34.7227 13.9453 35.0156 14.0039 35.3281 14.0039H36.207C36.5195 14.0039 36.8092 13.9453 37.0762 13.8281C37.3496 13.7109 37.5872 13.5514 37.7891 13.3496C37.9909 13.1413 38.1504 12.9036 38.2676 12.6367C38.3848 12.3633 38.4434 12.0703 38.4434 11.7578V8.83789H36.207V7.63672H39.7031V15ZM49.293 15L45.4941 9.02344H43.7656V15H42.5059V0.996094H46.9492C47.4245 0.996094 47.8704 1.08724 48.2871 1.26953C48.7038 1.44531 49.0684 1.68945 49.3809 2.00195C49.6934 2.31445 49.9375 2.68229 50.1133 3.10547C50.2956 3.52214 50.3867 3.9681 50.3867 4.44336V5.57617C50.3867 6.05143 50.2956 6.50065 50.1133 6.92383C49.9375 7.34049 49.6934 7.70508 49.3809 8.01758C49.0684 8.33008 48.7038 8.57747 48.2871 8.75977C47.8704 8.93555 47.4245 9.02344 46.9492 9.02344L50.748 15H49.293ZM49.127 4.44336C49.127 4.13086 49.0684 3.84115 48.9512 3.57422C48.834 3.30078 48.6745 3.06315 48.4727 2.86133C48.2708 2.65299 48.0332 2.49023 47.7598 2.37305C47.4928 2.25586 47.2031 2.19727 46.8906 2.19727H43.7656V7.82227H46.8906C47.2031 7.82227 47.4928 7.76367 47.7598 7.64648C48.0332 7.5293 48.2708 7.36979 48.4727 7.16797C48.6745 6.95964 48.834 6.72201 48.9512 6.45508C49.0684 6.18164 49.127 5.88867 49.127 5.57617V4.44336ZM58.4141 11.7383H53.9805L53.0625 15H51.7539L55.8555 0.996094H56.5195L60.6406 15H59.3418L58.4141 11.7383ZM54.3223 10.5371H58.082L56.2363 4.08203L56.1973 3.56445L56.1582 4.08203L54.3223 10.5371ZM71.0605 15V5.40039L70.9727 5.99609L67.7207 15H67.0566L63.7754 5.99609L63.6973 5.40039V15H62.4375V0.996094H63.0918L67.3398 12.4805L67.3789 12.998L67.418 12.4805L71.6562 0.996094H72.3203V15H71.0605ZM84.1465 15V5.40039L84.0586 5.99609L80.8066 15H80.1426L76.8613 5.99609L76.7832 5.40039V15H75.5234V0.996094H76.1777L80.4258 12.4805L80.4648 12.998L80.5039 12.4805L84.7422 0.996094H85.4062V15H84.1465ZM88.6094 15V0.996094H96.4902V2.19727H89.8691V7.40234H95.2305V8.60352H89.8691V13.7988H96.4902V15H88.6094ZM106.578 11.7578C106.578 12.2331 106.48 12.679 106.285 13.0957C106.096 13.5124 105.839 13.877 105.514 14.1895C105.195 14.502 104.82 14.7493 104.391 14.9316C103.967 15.1074 103.518 15.1953 103.043 15.1953H102.037C101.562 15.1953 101.109 15.1074 100.68 14.9316C100.257 14.7493 99.8822 14.502 99.5566 14.1895C99.2376 13.877 98.9805 13.5124 98.7852 13.0957C98.5964 12.679 98.502 12.2331 98.502 11.7578V11.2012L99.7617 10.9961V11.7578C99.7617 12.0703 99.8236 12.3633 99.9473 12.6367C100.077 12.9036 100.25 13.1413 100.465 13.3496C100.68 13.5514 100.927 13.7109 101.207 13.8281C101.493 13.9453 101.793 14.0039 102.105 14.0039H102.984C103.297 14.0039 103.593 13.9453 103.873 13.8281C104.153 13.7109 104.4 13.5514 104.615 13.3496C104.83 13.1413 104.999 12.9036 105.123 12.6367C105.253 12.3633 105.318 12.0703 105.318 11.7578V11.3379C105.318 10.8561 105.224 10.4557 105.035 10.1367C104.846 9.81771 104.596 9.54753 104.283 9.32617C103.971 9.09831 103.616 8.90625 103.219 8.75C102.828 8.59375 102.424 8.4375 102.008 8.28125C101.591 8.125 101.184 7.95247 100.787 7.76367C100.396 7.57487 100.045 7.34049 99.7324 7.06055C99.4199 6.77409 99.1693 6.42578 98.9805 6.01562C98.7917 5.60547 98.6973 5.10091 98.6973 4.50195V4.23828C98.6973 3.76302 98.7852 3.31706 98.9609 2.90039C99.1432 2.48372 99.3906 2.11914 99.7031 1.80664C100.016 1.49414 100.38 1.25 100.797 1.07422C101.22 0.891927 101.669 0.800781 102.145 0.800781H103.043C103.518 0.800781 103.964 0.891927 104.381 1.07422C104.798 1.25 105.162 1.49414 105.475 1.80664C105.787 2.11914 106.031 2.48372 106.207 2.90039C106.389 3.31706 106.48 3.76302 106.48 4.23828V4.59961L105.221 4.80469V4.23828C105.221 3.92578 105.162 3.63607 105.045 3.36914C104.928 3.0957 104.768 2.85807 104.566 2.65625C104.365 2.45443 104.127 2.29492 103.854 2.17773C103.587 2.06055 103.297 2.00195 102.984 2.00195H102.203C101.891 2.00195 101.598 2.06055 101.324 2.17773C101.057 2.29492 100.82 2.45443 100.611 2.65625C100.41 2.85807 100.25 3.0957 100.133 3.36914C100.016 3.63607 99.957 3.92578 99.957 4.23828V4.50195C99.957 4.95117 100.051 5.32878 100.24 5.63477C100.429 5.94076 100.68 6.20443 100.992 6.42578C101.305 6.64062 101.656 6.82943 102.047 6.99219C102.444 7.14844 102.851 7.3112 103.268 7.48047C103.684 7.64323 104.088 7.82552 104.479 8.02734C104.876 8.22266 105.23 8.4668 105.543 8.75977C105.855 9.04622 106.106 9.39779 106.295 9.81445C106.484 10.2311 106.578 10.7389 106.578 11.3379V11.7578ZM121.578 11.7578C121.578 12.2331 121.487 12.679 121.305 13.0957C121.129 13.5124 120.885 13.877 120.572 14.1895C120.26 14.502 119.895 14.7493 119.479 14.9316C119.062 15.1074 118.616 15.1953 118.141 15.1953H117.145C116.669 15.1953 116.22 15.1074 115.797 14.9316C115.38 14.7493 115.016 14.502 114.703 14.1895C114.391 13.877 114.143 13.5124 113.961 13.0957C113.785 12.679 113.697 12.2331 113.697 11.7578V4.23828C113.697 3.76302 113.785 3.31706 113.961 2.90039C114.143 2.48372 114.391 2.11914 114.703 1.80664C115.016 1.49414 115.38 1.25 115.797 1.07422C116.22 0.891927 116.669 0.800781 117.145 0.800781H118.141C118.616 0.800781 119.062 0.891927 119.479 1.07422C119.895 1.25 120.26 1.49414 120.572 1.80664C120.885 2.11914 121.129 2.48372 121.305 2.90039C121.487 3.31706 121.578 3.76302 121.578 4.23828V11.7578ZM120.318 4.23828C120.318 3.92578 120.26 3.63607 120.143 3.36914C120.025 3.0957 119.866 2.85807 119.664 2.65625C119.462 2.45443 119.225 2.29492 118.951 2.17773C118.684 2.06055 118.395 2.00195 118.082 2.00195H117.203C116.891 2.00195 116.598 2.06055 116.324 2.17773C116.057 2.29492 115.82 2.45443 115.611 2.65625C115.41 2.85807 115.25 3.0957 115.133 3.36914C115.016 3.63607 114.957 3.92578 114.957 4.23828V11.7578C114.957 12.0703 115.016 12.3633 115.133 12.6367C115.25 12.9036 115.41 13.1413 115.611 13.3496C115.82 13.5514 116.057 13.7109 116.324 13.8281C116.598 13.9453 116.891 14.0039 117.203 14.0039H118.082C118.395 14.0039 118.684 13.9453 118.951 13.8281C119.225 13.7109 119.462 13.5514 119.664 13.3496C119.866 13.1413 120.025 12.9036 120.143 12.6367C120.26 12.3633 120.318 12.0703 120.318 11.7578V4.23828ZM131.168 15L127.369 9.02344H125.641V15H124.381V0.996094H128.824C129.299 0.996094 129.745 1.08724 130.162 1.26953C130.579 1.44531 130.943 1.68945 131.256 2.00195C131.568 2.31445 131.812 2.68229 131.988 3.10547C132.171 3.52214 132.262 3.9681 132.262 4.44336V5.57617C132.262 6.05143 132.171 6.50065 131.988 6.92383C131.812 7.34049 131.568 7.70508 131.256 8.01758C130.943 8.33008 130.579 8.57747 130.162 8.75977C129.745 8.93555 129.299 9.02344 128.824 9.02344L132.623 15H131.168ZM131.002 4.44336C131.002 4.13086 130.943 3.84115 130.826 3.57422C130.709 3.30078 130.549 3.06315 130.348 2.86133C130.146 2.65299 129.908 2.49023 129.635 2.37305C129.368 2.25586 129.078 2.19727 128.766 2.19727H125.641V7.82227H128.766C129.078 7.82227 129.368 7.76367 129.635 7.64648C129.908 7.5293 130.146 7.36979 130.348 7.16797C130.549 6.95964 130.709 6.72201 130.826 6.45508C130.943 6.18164 131.002 5.88867 131.002 5.57617V4.44336ZM135.035 15V0.996094H136.295V15H135.035ZM147.184 15H146.783L146.051 13.877C145.745 14.2806 145.374 14.6029 144.938 14.8438C144.501 15.0781 144.016 15.1953 143.482 15.1953H142.75C142.275 15.1953 141.826 15.1074 141.402 14.9316C140.986 14.7493 140.621 14.502 140.309 14.1895C139.996 13.877 139.749 13.5124 139.566 13.0957C139.391 12.679 139.303 12.2331 139.303 11.7578V4.23828C139.303 3.76302 139.391 3.31706 139.566 2.90039C139.749 2.48372 139.996 2.11914 140.309 1.80664C140.621 1.49414 140.986 1.25 141.402 1.07422C141.826 0.891927 142.275 0.800781 142.75 0.800781H143.746C144.221 0.800781 144.667 0.891927 145.084 1.07422C145.501 1.25 145.865 1.49414 146.178 1.80664C146.49 2.11914 146.734 2.48372 146.91 2.90039C147.092 3.31706 147.184 3.76302 147.184 4.23828V4.80469L145.924 5V4.23828C145.924 3.92578 145.865 3.63607 145.748 3.36914C145.631 3.0957 145.471 2.85807 145.27 2.65625C145.068 2.45443 144.83 2.29492 144.557 2.17773C144.29 2.06055 144 2.00195 143.688 2.00195H142.809C142.496 2.00195 142.203 2.06055 141.93 2.17773C141.663 2.29492 141.425 2.45443 141.217 2.65625C141.015 2.85807 140.855 3.0957 140.738 3.36914C140.621 3.63607 140.562 3.92578 140.562 4.23828V11.7578C140.562 12.0703 140.621 12.3633 140.738 12.6367C140.855 12.9036 141.015 13.1413 141.217 13.3496C141.425 13.5514 141.663 13.7109 141.93 13.8281C142.203 13.9453 142.496 14.0039 142.809 14.0039H143.688C144 14.0039 144.29 13.9453 144.557 13.8281C144.83 13.7109 145.068 13.5514 145.27 13.3496C145.471 13.1413 145.631 12.9036 145.748 12.6367C145.865 12.3633 145.924 12.0703 145.924 11.7578V8.83789H143.688V7.63672H147.184V15ZM150.191 15V0.996094H151.451V15H150.191ZM161.881 15L156.041 4.80469L155.924 4.19922V15H154.664V0.996094H155.318L161.158 11.2012L161.285 11.7969V0.996094H162.545V15H161.881ZM171.012 11.7383H166.578L165.66 15H164.352L168.453 0.996094H169.117L173.238 15H171.939L171.012 11.7383ZM166.92 10.5371H170.68L168.834 4.08203L168.795 3.56445L168.756 4.08203L166.92 10.5371ZM182.711 11.7578C182.711 12.2331 182.62 12.679 182.438 13.0957C182.262 13.5124 182.018 13.877 181.705 14.1895C181.393 14.502 181.028 14.7493 180.611 14.9316C180.195 15.1074 179.749 15.1953 179.273 15.1953H178.277C177.802 15.1953 177.353 15.1074 176.93 14.9316C176.513 14.7493 176.148 14.502 175.836 14.1895C175.523 13.877 175.276 13.5124 175.094 13.0957C174.918 12.679 174.83 12.2331 174.83 11.7578V0.996094H176.09V11.7578C176.09 12.0703 176.148 12.3633 176.266 12.6367C176.383 12.9036 176.542 13.1413 176.744 13.3496C176.952 13.5514 177.19 13.7109 177.457 13.8281C177.73 13.9453 178.023 14.0039 178.336 14.0039H179.215C179.527 14.0039 179.817 13.9453 180.084 13.8281C180.357 13.7109 180.595 13.5514 180.797 13.3496C180.999 13.1413 181.158 12.9036 181.275 12.6367C181.393 12.3633 181.451 12.0703 181.451 11.7578V0.996094H182.711V11.7578ZM191.842 15L188.961 9.17969L186.08 15H184.713L188.277 7.80273L184.918 0.996094H186.275L188.961 6.41602L191.637 0.996094H192.994L189.635 7.80273L193.199 15H191.842ZM207.232 15L201.393 4.80469L201.275 4.19922V15H200.016V0.996094H200.67L206.51 11.2012L206.637 11.7969V0.996094H207.896V15H207.232ZM211.109 15V0.996094H218.99V2.19727H212.369V7.40234H217.73V8.60352H212.369V13.7988H218.99V15H211.109ZM224.801 2.19727V15H223.541V2.19727H220.201V0.996094H228.141V2.19727H224.801ZM231.412 2.19727V7.40234H236.773V8.60352H231.412V15H230.152V0.996094H238.033V2.19727H231.412ZM239.83 15V0.996094H241.09V13.7988H246.451V15H239.83ZM248.453 15V0.996094H249.713V15H248.453ZM259.049 15L256.168 9.17969L253.287 15H251.92L255.484 7.80273L252.125 0.996094H253.482L256.168 6.41602L258.844 0.996094H260.201L256.842 7.80273L260.406 15H259.049Z" fill="white"/>
</svg>
