<svg width="27" height="22" viewBox="0 0 27 22" fill="none" xmlns="http://www.w3.org/2000/svg">
<path fill-rule="evenodd" clip-rule="evenodd" d="M26.8146 2.54465C25.8436 2.96317 24.789 3.26451 23.7008 3.3817C24.8224 2.71206 25.6762 1.65737 26.078 0.401786C25.0401 1.02121 23.8682 1.47322 22.6461 1.70759C21.6584 0.652902 20.2521 0 18.6952 0C15.6985 0 13.2878 2.42746 13.2878 5.40737C13.2878 5.8259 13.338 6.24443 13.4218 6.64621C8.93514 6.41184 4.93402 4.26898 2.27218 0.987724C1.80343 1.7913 1.53558 2.71206 1.53558 3.71652C1.53558 5.59152 2.48982 7.24889 3.94629 8.21988C3.05902 8.18639 2.22196 7.93528 1.50209 7.53349C1.50209 7.55023 1.50209 7.58371 1.50209 7.60046C1.50209 10.2288 3.36035 12.4051 5.83804 12.9074C5.38603 13.0246 4.90054 13.0915 4.41504 13.0915C4.06348 13.0915 3.72866 13.0581 3.39384 13.0078C4.08022 15.1507 6.07241 16.7076 8.44965 16.7578C6.59139 18.2143 4.26437 19.0681 1.73647 19.0681C1.28446 19.0681 0.865932 19.0514 0.430664 19.0011C2.82464 20.5413 5.67063 21.4286 8.73425 21.4286C18.6785 21.4286 24.1193 13.192 24.1193 6.04353C24.1193 5.80916 24.1193 5.57478 24.1026 5.34041C25.1573 4.57032 26.078 3.61608 26.8146 2.54465Z" fill="#999999"/>
</svg>
