<svg width="30" height="22" viewBox="0 0 30 22" fill="none" xmlns="http://www.w3.org/2000/svg">
<path fill-rule="evenodd" clip-rule="evenodd" d="M29.3813 4.81445C29.4946 6.85353 29.5513 8.87369 29.5513 10.875C29.5513 12.8763 29.4946 14.8965 29.3813 16.9355C29.3813 18.2194 28.9754 19.305 28.1636 20.1924C27.3517 21.0798 26.3605 21.5234 25.1899 21.5234C22.2824 21.6745 18.9029 21.75 15.0513 21.75C11.1997 21.75 7.82016 21.6745 4.9126 21.5234C3.74202 21.5234 2.75082 21.0798 1.93896 20.1924C1.12711 19.305 0.721191 18.2194 0.721191 16.9355C0.60791 14.8965 0.55127 12.8763 0.55127 10.875C0.55127 9.55338 0.62679 7.53322 0.777832 4.81445C0.777832 3.53059 1.17431 2.44499 1.96729 1.55762C2.76026 0.670243 3.74202 0.226562 4.9126 0.226562C7.66912 0.0755201 10.8787 0 14.5415 0H15.0513H15.561C19.2238 0 22.4334 0.0755201 25.1899 0.226562C26.3605 0.226562 27.3517 0.670243 28.1636 1.55762C28.9754 2.44499 29.3813 3.53059 29.3813 4.81445V4.81445ZM12.2759 16.4258L20.4888 10.875L12.2759 5.26758V16.4258Z" fill="#999999"/>
</svg>
